<?xml version="1.0" standalone="no"?>
<!DOCTYPE svg PUBLIC "-//W3C//DTD SVG 20010904//EN"
 "http://www.w3.org/TR/2001/REC-SVG-20010904/DTD/svg10.dtd">
<svg version="1.0" xmlns="http://www.w3.org/2000/svg"
 width="3464.000000pt" height="1948.000000pt" viewBox="0 0 3464.000000 1948.000000"
 preserveAspectRatio="xMidYMid meet">

<g transform="translate(0.000000,1948.000000) scale(0.100000,-0.100000)"
fill="#000000" stroke="none">
<path d="M7015 17570 c-3 -6 -26 -15 -51 -21 -24 -6 -44 -15 -44 -19 0 -4 -11
-11 -24 -14 -13 -3 -45 -26 -71 -51 -46 -43 -63 -65 -84 -112 -5 -11 -15 -24
-20 -28 -6 -3 -11 -19 -11 -34 0 -16 -7 -34 -15 -41 -12 -10 -15 -45 -15 -196
l0 -183 -30 -18 c-16 -9 -30 -21 -30 -25 0 -4 -7 -8 -15 -8 -8 0 -15 -7 -15
-15 0 -8 -7 -15 -15 -15 -8 0 -15 -6 -15 -13 0 -8 -8 -21 -18 -30 -15 -14 -40
-17 -118 -17 -64 0 -104 -4 -112 -12 -7 -7 -58 -14 -124 -18 -62 -3 -123 -11
-135 -18 -12 -6 -46 -12 -75 -12 -31 -1 -61 -7 -72 -15 -11 -8 -38 -15 -60
-15 -23 0 -50 -7 -60 -15 -11 -8 -37 -15 -59 -15 -21 0 -45 -7 -53 -15 -9 -8
-29 -15 -45 -15 -17 0 -37 -7 -45 -15 -9 -8 -28 -15 -43 -15 -16 0 -34 -7 -41
-15 -7 -8 -23 -15 -36 -15 -12 0 -29 -7 -38 -15 -8 -8 -26 -15 -39 -15 -14 0
-30 -7 -37 -15 -7 -8 -23 -15 -35 -15 -13 0 -25 -7 -29 -15 -3 -8 -17 -15 -31
-15 -14 0 -28 -7 -31 -15 -4 -8 -16 -15 -29 -15 -13 0 -25 -7 -29 -15 -3 -8
-17 -15 -31 -15 -14 0 -25 -4 -25 -9 0 -5 -17 -18 -37 -28 -91 -46 -123 -66
-123 -73 0 -4 -10 -10 -23 -14 -13 -3 -36 -17 -51 -31 -15 -14 -31 -25 -35
-25 -7 0 -23 -12 -68 -50 -7 -6 -34 -25 -60 -42 -27 -18 -62 -46 -79 -63 -17
-16 -41 -37 -53 -45 -13 -8 -38 -30 -58 -47 -19 -18 -39 -33 -44 -33 -5 0 -9
-7 -9 -15 0 -8 -4 -15 -10 -15 -12 0 -80 -68 -80 -80 0 -6 -4 -10 -10 -10 -13
0 -50 -37 -50 -50 0 -5 -7 -10 -15 -10 -8 0 -15 -4 -15 -10 0 -11 -20 -37 -62
-82 -16 -16 -28 -32 -28 -36 0 -5 -13 -19 -30 -32 -16 -14 -29 -28 -30 -33 0
-12 -73 -107 -82 -107 -4 0 -8 -8 -8 -18 0 -10 -12 -31 -27 -48 -16 -17 -37
-48 -48 -70 -11 -21 -25 -43 -32 -47 -7 -4 -13 -17 -13 -28 0 -11 -7 -22 -15
-25 -8 -4 -15 -14 -15 -24 0 -10 -6 -23 -14 -29 -8 -7 -17 -23 -20 -36 -4 -14
-11 -25 -16 -25 -6 0 -10 -8 -10 -18 0 -10 -7 -27 -15 -38 -8 -10 -15 -26 -15
-35 0 -9 -7 -22 -15 -29 -8 -7 -15 -21 -15 -31 0 -9 -7 -24 -15 -33 -8 -8 -15
-24 -15 -35 0 -11 -7 -26 -15 -35 -8 -8 -15 -26 -15 -39 0 -14 -7 -30 -15 -37
-8 -7 -15 -25 -15 -39 0 -15 -7 -36 -15 -47 -8 -10 -15 -30 -15 -44 0 -14 -6
-34 -14 -45 -7 -11 -16 -41 -20 -67 -4 -27 -11 -48 -17 -48 -5 0 -9 -16 -9
-36 0 -20 -6 -50 -14 -67 -8 -18 -17 -62 -21 -99 -4 -38 -10 -68 -14 -68 -5 0
-12 -48 -15 -107 -4 -59 -12 -116 -17 -126 -13 -23 -13 -586 0 -601 5 -6 12
-58 16 -116 4 -58 11 -107 16 -110 5 -3 11 -38 15 -78 4 -40 10 -72 15 -72 4
0 11 -25 14 -55 4 -30 11 -58 16 -61 5 -2 11 -27 15 -54 4 -28 10 -50 14 -50
5 0 11 -19 15 -42 4 -24 14 -52 21 -63 8 -11 14 -30 14 -43 0 -13 7 -30 15
-38 8 -9 15 -25 15 -37 0 -12 7 -31 15 -41 8 -11 15 -27 15 -37 0 -9 7 -22 15
-29 8 -7 15 -21 15 -32 0 -11 7 -26 15 -34 8 -9 15 -24 15 -33 0 -10 7 -24 15
-31 8 -7 15 -18 15 -25 0 -19 32 -78 48 -88 6 -4 12 -16 12 -26 0 -10 7 -24
15 -31 8 -7 15 -18 15 -25 0 -7 7 -18 15 -25 8 -7 15 -21 15 -31 0 -11 7 -19
15 -19 8 0 15 -9 15 -20 0 -11 5 -20 10 -20 6 0 15 -10 20 -22 15 -34 33 -62
48 -71 6 -4 12 -15 12 -23 0 -8 7 -17 15 -20 8 -4 15 -12 15 -20 0 -8 5 -14
10 -14 6 0 14 -8 17 -17 8 -22 18 -34 61 -79 17 -19 32 -36 32 -38 0 -21 360
-376 381 -376 5 0 9 -3 9 -7 0 -5 36 -35 80 -67 44 -33 80 -62 80 -65 0 -4 13
-12 28 -19 16 -6 37 -20 48 -30 10 -10 26 -21 34 -25 16 -9 35 -20 95 -58 22
-14 69 -40 105 -59 186 -96 236 -120 244 -120 6 0 25 -10 43 -22 35 -24 43
-52 18 -62 -11 -4 -15 -20 -15 -56 0 -36 -4 -52 -15 -56 -11 -4 -15 -21 -15
-59 0 -34 -5 -57 -15 -65 -9 -8 -15 -30 -15 -59 0 -26 -7 -56 -15 -67 -8 -11
-15 -42 -15 -74 0 -30 -7 -68 -15 -84 -9 -16 -15 -55 -15 -93 0 -36 -6 -79
-14 -96 -9 -21 -16 -82 -19 -170 -3 -83 -9 -143 -16 -150 -16 -16 -16 -648 1
-665 7 -7 13 -63 16 -149 3 -95 8 -145 18 -160 9 -15 14 -52 14 -108 0 -50 4
-85 10 -85 20 0 9 -31 -14 -41 -19 -9 -31 -8 -57 5 -17 9 -39 16 -48 16 -9 0
-28 6 -43 14 -15 8 -42 17 -60 21 -18 4 -37 11 -43 15 -5 4 -29 11 -52 15 -24
4 -45 10 -48 15 -3 4 -28 11 -55 15 -27 4 -52 11 -55 15 -3 5 -30 12 -60 15
-31 4 -58 11 -60 15 -3 5 -31 12 -63 16 -31 3 -61 9 -67 13 -5 3 -41 12 -80
19 -208 38 -247 44 -330 53 -49 6 -103 14 -120 20 -16 5 -88 12 -160 15 -71 3
-143 10 -160 15 -47 14 -373 15 -387 1 -7 -7 -18 -12 -26 -12 -17 0 -102 -39
-117 -54 -6 -6 -28 -24 -48 -40 -20 -16 -37 -36 -37 -43 0 -7 -7 -13 -15 -13
-8 0 -15 -7 -15 -15 0 -9 -7 -18 -15 -21 -8 -4 -15 -12 -15 -20 0 -7 -11 -25
-25 -40 -26 -28 -49 -65 -61 -96 -3 -10 -12 -18 -19 -18 -7 0 -15 -8 -19 -17
-3 -10 -15 -31 -26 -48 -11 -16 -24 -39 -30 -50 -18 -36 -35 -60 -47 -68 -7
-4 -13 -17 -13 -28 0 -11 -7 -22 -15 -25 -8 -4 -15 -14 -15 -24 0 -10 -7 -25
-15 -34 -8 -8 -15 -19 -15 -24 0 -5 -7 -15 -15 -22 -8 -7 -15 -21 -15 -32 0
-10 -7 -21 -15 -24 -8 -4 -15 -14 -15 -24 0 -10 -7 -25 -15 -34 -8 -8 -15 -21
-15 -29 0 -8 -7 -20 -15 -27 -8 -7 -15 -21 -15 -31 0 -9 -7 -24 -15 -33 -8 -8
-15 -24 -15 -36 0 -11 -7 -23 -15 -26 -8 -4 -15 -14 -15 -23 0 -9 -9 -34 -20
-56 -11 -22 -20 -45 -20 -52 0 -7 -4 -13 -10 -13 -5 0 -10 -8 -10 -18 0 -10
-7 -27 -15 -38 -8 -10 -15 -28 -15 -39 0 -11 -6 -29 -14 -40 -7 -11 -17 -35
-21 -52 -3 -18 -11 -33 -16 -33 -5 0 -9 -13 -9 -28 0 -16 -7 -37 -15 -48 -8
-10 -15 -28 -15 -39 0 -11 -6 -32 -14 -47 -8 -15 -17 -42 -21 -60 -4 -18 -11
-37 -15 -43 -5 -5 -11 -26 -14 -45 -3 -19 -12 -53 -20 -75 -9 -22 -15 -52 -16
-67 0 -16 -4 -28 -9 -28 -4 0 -11 -27 -15 -60 -4 -33 -11 -62 -15 -65 -5 -3
-12 -33 -16 -67 -4 -35 -11 -68 -17 -75 -5 -6 -12 -44 -15 -85 -3 -40 -10 -79
-16 -86 -5 -7 -13 -59 -17 -115 -5 -56 -12 -116 -18 -133 -5 -18 -11 -99 -11
-180 -1 -82 -6 -192 -12 -244 -8 -67 -7 -129 0 -210 6 -63 12 -183 14 -267 1
-105 6 -156 15 -165 6 -6 12 -27 12 -45 0 -66 -53 -52 -152 40 -57 54 -150
106 -228 128 -81 22 -187 12 -262 -27 -14 -8 -33 -14 -42 -14 -9 0 -16 -5 -16
-10 0 -6 -11 -15 -25 -20 -14 -5 -25 -14 -25 -20 0 -5 -7 -10 -15 -10 -8 0
-15 -4 -15 -10 0 -5 -8 -19 -17 -29 -32 -35 -40 -47 -47 -69 -4 -12 -11 -22
-15 -22 -5 0 -11 -18 -15 -40 -3 -22 -11 -40 -16 -40 -6 0 -10 -44 -10 -110 0
-60 4 -110 9 -110 5 0 12 -12 15 -27 9 -36 37 -92 57 -113 8 -9 22 -25 30 -36
8 -10 43 -43 79 -73 36 -30 70 -60 76 -68 6 -7 16 -13 23 -13 6 0 11 -4 11 -8
0 -4 21 -24 48 -44 26 -20 61 -50 78 -66 17 -16 44 -38 60 -51 59 -45 98 -77
126 -103 16 -16 31 -28 33 -28 3 0 14 -8 24 -18 10 -9 32 -28 47 -41 16 -13
45 -37 64 -55 19 -17 54 -46 77 -64 26 -20 43 -42 43 -54 0 -23 -49 -74 -127
-133 -29 -21 -53 -43 -53 -47 0 -4 -5 -8 -10 -8 -6 0 -24 -14 -40 -30 -16 -17
-33 -30 -39 -30 -5 0 -12 -8 -16 -17 -6 -17 -7 -17 -19 0 -7 9 -21 17 -30 17
-9 0 -16 7 -16 15 0 9 -7 18 -15 21 -8 4 -15 11 -15 18 0 6 -14 26 -30 44 -17
18 -30 38 -30 43 0 5 -7 12 -15 15 -8 4 -15 10 -15 15 0 21 -67 98 -110 128
-41 28 -53 31 -118 31 -39 0 -72 -4 -72 -9 0 -5 -10 -13 -21 -16 -38 -12 -66
-56 -174 -270 -59 -115 -110 -217 -115 -225 -5 -8 -18 -35 -30 -60 -21 -45
-31 -64 -50 -97 -6 -10 -13 -25 -16 -33 -3 -8 -10 -22 -15 -30 -5 -8 -12 -22
-15 -30 -21 -50 -47 -101 -55 -106 -5 -3 -9 -13 -9 -23 0 -10 -7 -24 -15 -31
-8 -7 -15 -20 -15 -30 0 -10 -7 -23 -15 -30 -8 -7 -15 -20 -15 -30 0 -10 -7
-23 -15 -30 -8 -7 -15 -23 -15 -36 0 -15 -6 -24 -15 -24 -9 0 -15 -9 -15 -25
0 -14 -7 -28 -15 -31 -8 -4 -15 -17 -15 -30 0 -14 -7 -27 -15 -30 -8 -4 -15
-16 -15 -29 0 -12 -7 -28 -15 -35 -8 -7 -15 -20 -15 -30 0 -10 -7 -23 -15 -30
-8 -7 -15 -20 -15 -30 0 -10 -7 -23 -15 -30 -22 -19 -21 -152 2 -193 24 -42
50 -67 69 -67 8 0 13 -4 10 -9 -10 -15 22 -21 107 -21 56 1 88 5 101 15 11 8
32 15 47 15 15 0 29 5 31 11 2 5 22 13 46 16 23 3 47 12 53 19 6 8 26 14 43
14 17 0 40 7 50 15 11 8 29 15 41 15 12 0 30 7 41 15 10 8 33 15 49 15 17 0
39 7 49 15 11 8 29 15 41 15 12 0 30 7 41 15 10 8 30 15 44 15 14 0 38 7 54
15 15 8 36 15 45 15 9 0 29 7 45 15 16 8 43 18 60 21 17 3 33 9 34 15 2 5 13
9 25 9 12 0 35 7 50 15 15 8 45 17 65 21 20 4 42 10 47 14 13 9 110 40 125 40
7 0 26 6 43 14 18 7 54 21 81 31 43 15 92 55 134 108 18 24 16 161 -3 177 -8
7 -15 18 -15 24 0 6 -10 22 -22 36 -13 14 -36 44 -52 68 -16 23 -33 42 -37 42
-5 0 -9 6 -9 14 0 8 -7 16 -15 20 -8 3 -15 12 -15 19 0 8 -7 20 -15 27 -8 7
-15 19 -15 28 0 13 104 122 116 122 5 0 24 15 55 42 10 10 23 18 29 18 5 0 10
7 10 15 0 8 6 15 14 15 8 0 16 4 18 9 2 5 31 32 64 60 74 61 106 66 150 21 16
-16 35 -30 42 -30 6 0 12 -7 12 -15 0 -8 4 -15 10 -15 9 0 35 -19 65 -47 8 -7
18 -13 24 -13 6 0 11 -7 11 -15 0 -8 7 -15 15 -15 9 0 18 -7 21 -15 4 -8 14
-15 24 -15 10 0 25 -7 34 -15 8 -8 33 -16 55 -17 23 -1 46 -7 52 -15 16 -19
116 -17 135 2 9 8 30 15 48 15 19 0 39 7 46 15 7 8 21 15 31 15 11 0 19 4 19
9 0 5 10 13 21 16 26 9 119 104 119 123 0 7 7 15 15 18 8 4 15 14 15 24 0 10
7 23 15 30 8 7 15 28 15 46 0 18 7 51 15 72 14 34 14 42 0 81 -8 24 -15 58
-15 76 0 18 -7 38 -15 45 -8 7 -15 23 -15 35 0 12 -7 28 -15 35 -8 7 -15 20
-15 30 0 10 -7 23 -15 30 -8 7 -15 23 -15 35 0 13 -7 25 -15 29 -8 3 -15 18
-15 33 0 15 -7 37 -15 47 -30 39 -25 46 90 141 33 28 65 55 72 60 19 16 105
91 148 129 22 20 43 36 47 36 4 0 28 20 52 45 25 25 50 45 56 45 5 0 10 4 10
8 0 5 21 24 47 43 26 18 64 50 85 69 48 46 99 90 104 90 6 0 29 19 70 57 19
18 37 33 39 33 2 0 17 12 33 27 15 16 40 37 55 47 14 11 23 24 20 29 -3 6 -2
7 4 4 5 -3 29 12 52 33 24 22 47 40 52 40 5 0 9 4 9 8 0 4 21 24 48 44 26 20
65 53 87 73 22 20 61 52 88 72 26 21 47 41 47 45 0 4 5 8 11 8 5 0 22 13 37
28 15 16 56 50 91 77 35 26 78 62 95 79 32 31 94 83 151 128 16 13 37 30 45
38 9 8 38 33 65 55 26 22 56 47 65 56 9 8 24 18 33 22 9 3 17 11 17 17 0 5 4
10 10 10 5 0 24 15 42 32 18 18 51 47 72 63 22 17 52 42 68 57 16 16 31 28 33
28 3 0 21 16 41 35 19 19 39 35 43 35 4 0 26 18 50 40 23 22 45 40 47 40 3 0
17 12 32 27 15 16 47 44 72 62 25 19 52 42 61 50 63 61 165 141 180 141 17 0
45 -50 58 -105 14 -57 36 -125 49 -158 7 -16 12 -36 12 -45 0 -9 7 -26 15 -36
8 -11 15 -32 15 -48 0 -15 4 -28 9 -28 5 0 14 -20 20 -44 6 -25 15 -48 21 -51
5 -3 10 -15 10 -25 0 -10 8 -33 17 -52 9 -18 22 -45 30 -60 7 -14 13 -35 13
-46 0 -11 7 -25 15 -32 8 -7 15 -20 15 -30 0 -10 7 -23 15 -30 8 -7 15 -23 15
-35 0 -12 7 -28 15 -35 8 -7 15 -20 15 -30 0 -10 7 -23 15 -30 8 -7 15 -20 15
-30 0 -10 7 -23 15 -30 8 -7 15 -21 15 -32 0 -10 7 -21 15 -24 8 -4 15 -17 15
-30 0 -14 7 -27 15 -30 8 -4 15 -14 15 -24 0 -10 7 -23 15 -30 8 -7 15 -18 15
-25 0 -7 7 -18 15 -25 8 -7 15 -20 15 -30 0 -10 7 -20 15 -24 8 -3 15 -15 15
-26 0 -11 7 -23 15 -26 8 -4 15 -14 15 -24 0 -10 7 -20 15 -24 8 -3 15 -12 15
-21 0 -8 9 -24 20 -35 12 -12 18 -25 15 -29 -2 -5 2 -11 10 -15 8 -3 15 -12
15 -20 0 -7 7 -16 15 -20 8 -3 15 -15 15 -26 0 -11 7 -23 15 -26 8 -4 15 -12
15 -19 0 -7 7 -15 15 -19 8 -3 15 -11 15 -18 0 -8 13 -28 29 -45 15 -17 31
-37 35 -45 16 -31 32 -55 53 -78 13 -13 35 -42 50 -64 29 -43 57 -78 84 -105
8 -9 40 -45 70 -81 131 -155 491 -516 560 -562 14 -9 42 -32 62 -52 21 -20 42
-36 47 -36 6 0 10 -4 10 -8 0 -8 95 -82 105 -82 3 0 16 -10 28 -23 12 -12 41
-35 65 -51 23 -16 42 -33 42 -37 0 -5 6 -9 14 -9 8 0 21 -6 28 -14 8 -7 29
-17 46 -21 18 -3 32 -11 32 -16 0 -5 57 -9 128 -9 97 0 133 4 148 15 10 8 27
15 37 15 23 0 125 77 200 152 32 32 60 58 62 58 11 0 495 496 495 508 0 2 14
18 30 34 17 15 30 32 30 36 0 4 20 29 45 55 25 27 45 52 45 58 0 5 7 9 15 9 8
0 15 6 15 14 0 14 30 53 85 111 17 17 36 43 44 57 7 14 28 43 47 64 18 22 34
42 34 45 0 5 13 22 50 66 5 7 10 17 10 23 0 6 7 13 15 16 8 4 15 11 15 16 0 6
14 27 30 48 17 21 30 42 30 47 0 6 9 18 20 28 11 10 20 24 20 32 0 7 4 13 10
13 5 0 12 11 16 24 3 14 12 27 20 30 8 3 14 12 14 21 0 8 5 15 10 15 6 0 10 6
10 14 0 8 6 21 13 28 7 7 24 31 37 53 13 22 27 42 31 45 4 3 11 18 14 33 4 15
11 27 16 27 5 0 14 10 19 22 6 13 19 37 30 53 11 17 24 39 29 50 5 11 19 31
32 44 l23 24 43 -49 c24 -26 43 -54 43 -61 0 -7 7 -13 15 -13 8 0 15 -6 15
-14 0 -8 7 -16 15 -20 8 -3 15 -12 15 -21 0 -8 6 -15 13 -15 12 0 28 -24 43
-63 3 -9 13 -17 20 -17 8 0 14 -7 14 -15 0 -8 4 -15 8 -15 5 0 30 -30 58 -67
27 -38 56 -75 65 -84 9 -9 35 -41 57 -70 22 -30 51 -61 63 -69 12 -8 27 -19
33 -25 34 -29 77 -55 93 -55 10 0 26 -7 36 -14 22 -17 232 -22 242 -7 3 6 24
15 45 21 22 6 40 15 40 19 0 5 11 12 24 15 24 6 118 90 130 116 3 8 17 33 31
55 13 22 24 54 25 71 0 17 7 37 15 44 20 17 20 128 0 154 -8 11 -15 34 -15 52
0 17 -7 37 -15 44 -8 7 -15 20 -15 30 0 10 -7 20 -15 24 -8 3 -15 11 -15 18 0
8 -13 28 -30 46 -16 18 -30 37 -30 43 0 5 -7 9 -15 9 -8 0 -15 6 -15 13 0 8
-9 25 -21 38 -11 13 -30 35 -42 49 -49 57 -97 119 -97 126 0 3 -10 16 -22 28
-13 12 -48 53 -78 91 -30 39 -60 76 -67 83 -7 7 -34 41 -60 75 -26 34 -52 67
-58 72 -19 17 -75 92 -75 101 -1 5 -14 20 -30 34 -17 13 -30 27 -30 32 0 4
-13 21 -30 38 -16 17 -30 34 -30 38 0 4 -19 28 -42 54 -43 46 -62 71 -75 97
-4 8 -34 42 -67 75 -58 58 -135 106 -169 106 -9 0 -19 4 -22 10 -3 6 -52 10
-112 10 -101 0 -109 -2 -182 -36 -96 -47 -165 -115 -209 -209 -19 -39 -38 -77
-43 -85 -5 -8 -12 -22 -15 -30 -3 -8 -14 -33 -25 -56 -10 -23 -19 -46 -19 -53
0 -6 -4 -11 -9 -11 -5 0 -12 -14 -16 -30 -4 -17 -11 -30 -16 -30 -5 0 -9 -9
-9 -19 0 -11 -6 -26 -13 -33 -8 -7 -17 -26 -21 -41 -3 -15 -10 -27 -15 -27 -5
0 -12 -13 -16 -30 -4 -16 -11 -30 -16 -30 -5 0 -11 -11 -15 -25 -3 -13 -12
-29 -20 -36 -8 -6 -14 -19 -14 -29 0 -10 -7 -20 -15 -24 -8 -3 -15 -15 -15
-26 0 -11 -4 -20 -10 -20 -5 0 -10 -7 -10 -15 0 -8 -9 -23 -20 -32 -11 -10
-20 -25 -20 -35 0 -9 -5 -20 -11 -23 -5 -4 -14 -17 -20 -28 -14 -33 -33 -61
-46 -70 -7 -4 -13 -14 -13 -22 0 -7 -6 -20 -12 -27 -17 -19 -36 -48 -48 -75
-5 -13 -14 -23 -19 -23 -5 0 -12 -8 -15 -18 -13 -34 -37 -72 -47 -72 -5 0 -9
-7 -9 -15 0 -9 -6 -18 -14 -21 -8 -3 -17 -16 -20 -30 -4 -13 -11 -24 -16 -24
-6 0 -10 -7 -10 -15 0 -8 -5 -15 -10 -15 -6 0 -15 -11 -20 -25 -5 -14 -14 -25
-20 -25 -5 0 -10 -6 -10 -13 0 -7 -13 -27 -30 -45 -16 -18 -30 -36 -30 -40 0
-4 -14 -21 -30 -39 -17 -18 -30 -35 -30 -38 0 -3 -13 -19 -30 -35 -16 -16 -30
-32 -30 -35 0 -10 -61 -83 -122 -147 -32 -33 -58 -62 -58 -65 0 -6 -45 -56
-155 -170 -49 -52 -91 -98 -93 -104 -8 -20 -71 -9 -101 18 -16 16 -55 51 -87
78 -69 60 -213 205 -257 259 -18 21 -44 52 -59 68 -16 16 -28 33 -28 38 0 6
-7 10 -15 10 -8 0 -15 5 -15 10 0 6 -13 24 -30 40 -16 16 -30 32 -30 36 0 6
-51 73 -80 105 -31 34 -50 63 -50 77 0 7 -4 10 -10 7 -5 -3 -10 1 -10 10 0 8
-7 18 -15 21 -8 4 -15 12 -15 19 0 6 -8 21 -17 33 -41 49 -53 67 -53 79 0 7
-3 13 -8 13 -4 0 -19 21 -32 47 -14 27 -29 51 -33 54 -10 7 -21 25 -57 96 -14
26 -31 54 -37 61 -7 7 -13 19 -13 26 0 8 -7 19 -15 26 -8 7 -15 19 -15 27 0 8
-7 21 -15 29 -8 9 -15 24 -15 35 0 11 -7 22 -15 25 -8 4 -15 16 -15 29 0 12
-7 28 -15 35 -8 7 -15 20 -15 29 0 9 -7 25 -15 35 -8 11 -15 26 -15 34 0 7 -7
20 -15 28 -8 9 -15 24 -15 34 0 10 -4 22 -10 25 -5 3 -14 24 -20 45 -6 22 -15
40 -20 40 -6 0 -10 14 -10 31 0 17 -7 37 -15 45 -8 9 -15 28 -15 44 0 16 -7
30 -15 34 -9 3 -15 19 -15 41 0 20 -7 43 -15 51 -8 9 -15 33 -15 54 0 24 -5
40 -15 44 -10 3 -15 19 -15 43 0 21 -7 47 -15 57 -8 11 -15 36 -15 56 0 20 -7
45 -15 56 -8 11 -15 41 -15 70 0 33 -5 56 -15 64 -10 8 -15 31 -15 71 0 32 -4
60 -9 63 -15 10 -19 55 -5 67 8 6 14 18 14 25 0 8 5 14 11 14 5 0 22 13 37 28
15 16 43 39 62 52 19 14 47 36 61 50 35 34 74 67 134 115 59 46 97 79 137 118
16 15 32 27 36 27 4 0 15 8 23 18 9 9 33 31 54 47 20 17 47 39 60 50 12 11 44
38 70 60 27 22 58 49 70 60 47 42 75 64 140 115 37 29 86 71 108 93 23 21 59
50 80 64 20 14 37 30 37 34 0 5 4 9 10 9 5 0 29 19 54 43 24 23 73 65 107 92
35 28 77 64 94 80 16 17 51 46 78 64 26 19 47 38 47 43 0 4 4 8 10 8 5 0 31
20 57 45 27 24 68 58 92 76 24 17 55 43 70 58 14 14 55 49 90 76 36 28 79 64
96 80 18 17 49 44 70 60 21 17 45 38 54 47 8 10 19 18 23 18 5 0 26 18 48 40
22 22 45 40 50 40 6 0 10 4 10 8 0 4 23 26 52 47 28 22 56 44 62 50 6 6 43 37
81 69 91 76 169 142 221 189 22 20 44 37 48 37 4 0 19 13 34 28 15 15 56 53
92 83 36 29 67 57 68 62 2 4 8 7 13 7 5 0 17 8 27 18 100 95 141 118 167 93
14 -13 121 -42 176 -48 31 -3 57 0 77 11 17 9 42 16 56 16 22 0 83 26 96 41 3
3 21 16 41 30 31 20 158 129 193 165 24 25 148 164 166 187 11 14 20 30 20 36
0 5 6 14 14 18 8 4 24 27 36 51 12 23 25 42 29 42 3 0 17 25 30 55 14 30 28
55 33 55 4 0 8 7 8 15 0 8 9 32 20 52 11 21 20 43 20 50 0 7 5 13 10 13 6 0
10 8 10 18 0 9 7 30 15 46 8 15 15 35 15 43 0 28 58 113 77 113 5 0 16 8 24
18 21 23 128 115 147 126 14 8 41 31 96 81 12 11 39 34 60 50 22 17 45 36 52
43 7 6 17 12 23 12 6 0 11 7 11 15 0 8 5 15 10 15 6 0 21 10 33 23 12 12 40
36 62 52 22 16 50 39 62 52 12 13 26 23 32 23 5 0 11 4 13 9 3 8 43 43 144
126 26 22 63 54 80 71 17 17 39 34 48 37 9 4 16 11 16 17 0 5 6 10 13 10 7 0
20 8 29 18 26 28 120 109 189 162 18 14 47 40 66 57 18 18 61 54 96 81 34 26
76 61 93 77 52 50 88 80 114 97 14 9 47 37 73 62 27 25 51 46 53 46 4 0 15 10
65 55 9 8 21 15 27 15 7 0 12 7 12 15 0 8 7 15 15 15 8 0 15 3 15 8 0 4 34 34
75 67 41 33 75 63 75 68 0 4 4 7 10 7 5 0 22 12 38 28 15 15 51 45 80 67 29
21 52 43 52 47 0 4 7 8 15 8 8 0 15 7 15 15 0 8 6 15 14 15 8 0 16 4 18 9 3 8
44 44 123 106 21 16 52 44 70 61 17 17 48 43 68 58 65 49 80 85 75 178 -2 53
-8 83 -16 86 -6 2 -12 10 -12 18 0 8 -13 23 -30 32 -16 9 -30 20 -30 25 0 4
-8 7 -18 7 -10 0 -27 7 -38 15 -25 19 -71 19 -90 0 -9 -8 -25 -15 -36 -15 -19
0 -50 -22 -129 -92 -15 -13 -44 -36 -65 -53 -21 -16 -46 -38 -56 -47 -10 -10
-21 -18 -24 -18 -3 0 -17 -13 -32 -29 -15 -16 -49 -45 -77 -66 -27 -21 -60
-48 -72 -61 -12 -13 -25 -24 -28 -24 -3 0 -13 -8 -23 -17 -19 -19 -74 -65
-119 -100 -24 -18 -74 -63 -134 -118 -9 -8 -19 -15 -22 -15 -3 0 -19 -12 -35
-27 -53 -51 -122 -112 -136 -120 -14 -8 -84 -64 -115 -93 -9 -8 -52 -44 -95
-80 -43 -36 -93 -78 -110 -95 -18 -16 -61 -52 -96 -79 -35 -28 -80 -66 -101
-86 -20 -19 -62 -53 -93 -75 -31 -22 -56 -46 -56 -52 0 -7 -4 -13 -10 -13 -5
0 -18 -8 -28 -17 -10 -10 -33 -29 -51 -43 -18 -14 -42 -33 -52 -42 -11 -10
-23 -18 -29 -18 -5 0 -10 -7 -10 -15 0 -8 -7 -15 -15 -15 -8 0 -15 -3 -15 -7
0 -5 -39 -39 -87 -78 -48 -38 -109 -91 -137 -117 -28 -26 -55 -48 -59 -48 -4
0 -19 -12 -32 -26 -15 -16 -32 -24 -47 -22 -20 3 -23 9 -26 56 -2 28 -7 52
-11 52 -5 0 -12 37 -16 83 -4 45 -14 91 -21 102 -8 11 -14 36 -14 57 0 21 -4
38 -9 38 -6 0 -13 20 -16 45 -4 24 -13 50 -21 56 -8 6 -14 22 -14 35 0 12 -4
25 -9 29 -5 3 -13 20 -16 37 -4 18 -14 38 -21 46 -8 7 -14 22 -14 33 0 10 -4
19 -9 19 -5 0 -14 12 -20 28 -6 15 -20 41 -31 57 -11 17 -23 37 -27 45 -3 8
-19 31 -35 51 -15 20 -28 42 -28 48 0 6 -4 11 -8 11 -4 0 -25 24 -47 53 -21
28 -52 63 -69 77 -16 14 -38 33 -48 43 -10 9 -22 17 -28 17 -5 0 -10 5 -10 10
0 6 -6 10 -13 10 -7 0 -29 12 -48 26 -19 14 -59 37 -89 52 -30 15 -57 30 -60
34 -3 3 -18 10 -33 13 -15 4 -27 11 -27 16 0 5 -6 9 -12 9 -7 0 -44 16 -81 35
-38 19 -76 35 -85 35 -9 0 -26 7 -36 15 -11 8 -28 15 -39 15 -10 0 -25 7 -33
15 -9 8 -28 15 -43 15 -16 0 -34 7 -41 15 -7 8 -25 15 -40 15 -15 0 -33 7 -40
15 -7 8 -29 15 -49 15 -21 0 -46 7 -57 15 -10 8 -35 15 -54 15 -19 0 -46 7
-60 15 -14 8 -46 14 -71 15 -25 0 -54 7 -65 15 -12 9 -44 14 -92 15 -46 0 -84
6 -103 16 -26 13 -82 15 -378 16 -191 0 -354 4 -362 9 -11 6 -11 13 -3 27 6 9
15 32 19 50 3 18 11 32 16 32 5 0 9 56 9 125 0 73 -4 125 -10 125 -5 0 -12 16
-16 35 -3 19 -12 39 -20 46 -8 6 -14 15 -14 20 0 14 -60 81 -102 115 -8 6 -34
22 -58 35 -63 34 -94 64 -87 83 4 9 17 16 30 16 14 0 41 7 60 15 52 22 419 22
461 0 15 -8 51 -15 80 -15 28 -1 62 -7 76 -15 14 -8 37 -14 51 -15 14 0 34 -7
45 -15 10 -8 28 -15 39 -15 11 0 32 -6 46 -14 14 -7 37 -16 52 -20 15 -3 27
-11 27 -16 0 -6 8 -10 19 -10 10 0 24 -7 31 -15 7 -8 23 -15 36 -15 13 0 24
-4 24 -9 0 -5 21 -20 46 -33 26 -12 49 -28 51 -35 3 -7 9 -13 14 -13 9 0 60
-33 85 -55 6 -5 33 -28 59 -50 26 -22 70 -62 96 -90 133 -139 156 -162 186
-183 18 -12 39 -22 48 -22 8 0 15 -4 15 -8 0 -22 188 -49 228 -33 15 5 41 12
57 14 35 5 120 49 150 77 12 11 27 20 33 20 7 0 12 6 12 14 0 8 7 16 15 20 8
3 15 12 15 20 0 8 6 19 13 23 18 12 47 71 47 98 0 12 7 28 15 35 21 17 21 187
0 214 -8 11 -15 30 -15 42 0 12 -7 27 -15 34 -8 7 -15 19 -15 26 0 14 -6 22
-60 82 -17 18 -30 36 -30 40 0 5 -13 19 -30 32 -16 14 -29 31 -30 38 0 6 -7
12 -15 12 -8 0 -15 7 -15 15 0 8 -4 15 -9 15 -6 0 -38 28 -73 63 -35 34 -84
78 -110 96 -27 19 -48 38 -48 43 0 4 -7 8 -15 8 -9 0 -18 7 -21 15 -4 8 -11
15 -18 15 -6 0 -26 14 -44 30 -18 17 -38 30 -43 30 -10 0 -24 10 -60 43 -10 9
-25 17 -33 17 -8 0 -21 6 -28 14 -8 7 -24 17 -36 20 -12 4 -22 12 -22 17 0 5
-9 9 -20 9 -11 0 -23 7 -26 15 -4 8 -17 15 -30 15 -14 0 -27 7 -30 15 -4 8
-17 15 -29 15 -13 0 -30 7 -39 15 -8 8 -26 15 -39 15 -14 0 -27 7 -31 15 -3 8
-16 15 -29 15 -13 0 -32 7 -43 15 -10 8 -33 15 -50 15 -17 0 -37 6 -43 14 -6
7 -32 16 -57 19 -26 2 -49 9 -53 15 -3 5 -31 12 -61 14 -30 3 -56 11 -58 17
-2 7 -30 11 -71 11 -45 0 -74 5 -90 16 -20 15 -65 17 -356 17 -291 0 -336 -2
-356 -17 -15 -10 -45 -16 -84 -16 -37 -1 -67 -6 -79 -15 -11 -8 -36 -15 -57
-15 -20 0 -50 -7 -65 -15 -16 -8 -40 -15 -54 -15 -14 0 -34 -7 -44 -15 -11 -8
-31 -15 -45 -15 -14 0 -35 -7 -45 -15 -11 -8 -28 -15 -39 -15 -10 0 -25 -7
-33 -15 -9 -8 -26 -15 -40 -15 -13 0 -24 -4 -24 -10 0 -5 -12 -13 -27 -16 -16
-4 -35 -12 -43 -19 -8 -7 -27 -15 -42 -19 -16 -3 -28 -11 -28 -16 0 -6 -8 -10
-19 -10 -10 0 -24 -7 -31 -15 -7 -8 -20 -15 -30 -15 -10 0 -20 -7 -24 -15 -3
-8 -14 -15 -25 -15 -10 0 -21 -7 -25 -15 -3 -8 -15 -15 -26 -15 -11 0 -20 -5
-20 -10 0 -6 -11 -15 -25 -20 -14 -5 -25 -14 -25 -20 0 -5 -6 -10 -14 -10 -8
0 -16 -3 -18 -7 -1 -5 -20 -20 -41 -34 -104 -72 -257 -220 -257 -250 0 -6 -7
-17 -15 -25 -8 -9 -15 -28 -15 -43 0 -16 -7 -34 -15 -41 -11 -9 -15 -34 -15
-100 0 -66 4 -91 15 -100 8 -7 15 -25 15 -40 0 -15 7 -33 15 -40 8 -7 15 -21
15 -32 0 -10 7 -21 15 -24 8 -4 15 -11 16 -18 0 -6 25 -31 55 -56 29 -25 60
-51 68 -57 8 -7 21 -13 30 -13 8 0 17 -4 20 -9 7 -11 170 -91 185 -91 6 0 11
-4 11 -9 0 -5 12 -12 27 -16 15 -3 30 -10 33 -13 6 -9 94 -52 105 -52 18 0 53
-50 48 -69 -7 -28 -185 -207 -263 -266 -36 -26 -70 -53 -75 -59 -6 -6 -26 -19
-45 -30 -19 -10 -40 -24 -45 -31 -6 -7 -21 -16 -35 -20 -14 -4 -27 -10 -30
-14 -7 -8 -133 -71 -143 -71 -5 0 -24 -7 -42 -16 -56 -26 -256 -4 -286 32 -6
8 -18 14 -25 14 -8 0 -14 5 -14 10 0 6 -5 10 -11 10 -13 0 -109 98 -109 112 0
5 -7 16 -15 24 -8 9 -15 24 -15 35 0 10 -4 19 -10 19 -5 0 -10 6 -10 13 0 26
-101 137 -125 137 -8 0 -15 4 -15 9 0 14 -82 51 -112 51 -14 0 -31 7 -38 15
-17 20 -137 20 -164 0 -11 -8 -34 -15 -52 -15 -18 0 -35 -4 -39 -9 -3 -6 -26
-20 -51 -33 -26 -12 -49 -28 -51 -35 -3 -7 -11 -13 -19 -13 -8 0 -14 -5 -14
-10 0 -6 -13 -24 -30 -40 -16 -16 -30 -36 -30 -45 0 -9 -7 -18 -15 -21 -8 -4
-15 -18 -15 -34 0 -16 -7 -35 -15 -44 -21 -21 -21 -222 0 -250 8 -11 15 -28
15 -39 0 -10 7 -25 15 -33 8 -9 15 -24 15 -34 0 -10 5 -22 11 -25 5 -4 14 -17
20 -28 12 -28 27 -53 62 -98 15 -20 27 -40 27 -43 0 -4 20 -27 45 -53 25 -25
45 -47 45 -50 0 -2 12 -15 28 -29 15 -14 45 -42 67 -63 22 -20 63 -52 90 -71
28 -19 52 -37 55 -40 8 -11 92 -54 183 -94 31 -14 57 -31 57 -36 0 -18 -30
-72 -71 -127 -42 -56 -67 -65 -103 -38 -11 8 -34 15 -50 15 -17 0 -40 7 -50
15 -11 8 -30 15 -42 15 -12 0 -27 7 -34 15 -7 8 -22 15 -34 15 -12 0 -31 7
-42 15 -10 8 -29 15 -40 15 -12 0 -24 7 -28 15 -3 8 -16 15 -30 15 -13 0 -26
7 -30 15 -3 8 -14 15 -25 15 -11 0 -26 7 -35 15 -8 8 -21 15 -29 15 -8 0 -20
7 -27 15 -7 8 -18 15 -25 15 -7 0 -15 7 -19 15 -3 8 -15 15 -26 15 -11 0 -23
7 -26 15 -4 8 -12 15 -20 15 -7 0 -17 6 -21 13 -9 14 -41 35 -65 43 -10 4 -18
9 -18 13 0 4 -24 25 -52 46 -66 50 -296 278 -328 325 -13 19 -30 39 -37 43 -7
4 -13 13 -13 18 0 6 -6 16 -12 23 -7 8 -19 22 -26 32 -7 11 -28 41 -47 68 -19
27 -35 55 -35 62 0 6 -7 14 -15 18 -8 3 -15 14 -15 25 0 11 -5 23 -11 26 -5 4
-14 17 -20 28 -5 12 -13 29 -18 37 -24 43 -41 79 -41 90 0 6 -7 18 -15 26 -8
9 -15 26 -15 40 0 14 -7 27 -15 30 -9 4 -15 19 -15 39 0 18 -7 38 -15 45 -8 7
-15 27 -15 45 0 18 -7 38 -15 45 -9 7 -15 29 -15 52 0 22 -7 46 -15 54 -9 10
-15 35 -15 67 0 30 -7 60 -15 71 -10 14 -15 45 -15 102 0 53 -5 92 -15 110
-21 40 -21 327 -1 381 8 21 16 80 18 131 3 53 9 97 16 104 7 7 12 33 12 59 0
29 6 53 15 63 8 8 15 32 15 53 0 22 7 48 15 59 8 10 15 31 15 45 0 14 7 34 15
45 8 10 15 31 15 45 0 15 7 29 15 33 8 3 15 15 15 27 0 18 13 50 41 99 5 8 12
22 15 30 6 16 40 86 62 126 7 13 17 24 23 24 5 0 9 9 9 20 0 11 7 23 15 26 8
4 15 14 15 24 0 10 7 20 15 24 8 3 15 11 15 18 0 8 14 28 30 46 17 18 30 37
30 41 0 4 9 19 21 32 59 70 159 177 193 208 21 20 59 56 85 81 56 54 120 104
144 113 9 4 17 11 17 17 0 5 7 10 15 10 8 0 15 6 15 13 1 6 23 23 50 36 28 13
50 28 50 33 0 4 6 8 14 8 8 0 21 6 28 13 14 12 46 30 111 64 17 9 39 20 47 25
8 4 26 13 40 18 14 6 34 15 45 20 67 31 116 50 127 50 7 0 22 7 32 15 11 8 35
15 53 15 18 0 33 4 33 9 0 6 21 13 48 17 26 3 52 11 59 16 6 5 38 12 70 15 32
3 63 10 70 15 11 9 180 25 364 35 124 6 139 -1 139 -66 0 -31 5 -53 15 -61 8
-7 15 -27 15 -45 0 -20 6 -35 15 -39 8 -3 15 -15 15 -26 0 -11 7 -23 15 -26 8
-4 15 -10 15 -15 0 -24 140 -139 170 -139 10 0 23 -7 30 -15 10 -12 40 -15
150 -15 113 0 139 3 144 15 3 8 17 15 31 15 14 0 28 7 31 15 4 8 12 15 20 15
16 0 124 102 124 117 0 5 9 20 20 33 11 13 20 33 20 46 0 12 6 24 13 26 8 3
13 38 15 116 3 95 7 113 23 128 17 15 24 16 39 6 11 -7 49 -12 85 -12 35 0 84
-6 107 -14 24 -8 79 -17 123 -20 43 -3 84 -11 89 -16 6 -6 37 -10 71 -10 33 0
78 -5 100 -11 22 -6 81 -15 130 -20 50 -5 99 -14 110 -18 11 -5 58 -12 104
-15 46 -3 89 -10 95 -14 6 -5 51 -12 99 -15 49 -3 94 -10 100 -15 7 -5 51 -12
99 -14 47 -2 92 -9 100 -15 7 -6 52 -13 100 -17 48 -3 97 -10 110 -15 13 -6
62 -13 111 -16 48 -4 87 -10 87 -14 0 -5 44 -11 97 -15 53 -4 102 -10 107 -15
6 -5 51 -11 100 -15 49 -3 94 -10 100 -15 6 -5 51 -12 101 -15 49 -4 94 -11
100 -15 5 -5 48 -11 94 -15 46 -4 91 -11 100 -15 9 -5 57 -12 106 -16 50 -4
95 -11 101 -16 5 -4 48 -11 95 -15 46 -3 103 -12 127 -20 23 -8 70 -14 103
-14 33 0 72 -6 87 -14 15 -7 59 -14 97 -15 39 -1 88 -9 111 -17 52 -20 355
-17 362 4 2 6 12 12 21 12 15 0 207 123 406 260 22 15 110 74 195 130 85 57
169 117 185 134 52 54 105 143 105 178 1 13 7 34 15 48 8 14 14 48 14 75 0 28
-6 61 -14 75 -8 14 -15 36 -15 50 -1 14 -12 43 -25 65 -14 22 -28 47 -31 55
-4 8 -20 27 -36 42 -15 15 -28 32 -28 37 0 6 -5 11 -11 11 -6 0 -28 13 -48 28
-20 16 -44 32 -53 35 -10 4 -18 11 -18 17 0 5 -9 10 -20 10 -11 0 -23 7 -26
15 -4 8 -13 15 -20 15 -8 0 -17 6 -20 14 -3 8 -16 17 -30 20 -13 4 -24 11 -24
16 0 6 -7 10 -15 10 -9 0 -18 6 -21 14 -3 8 -16 17 -30 20 -13 4 -24 11 -24
16 0 6 -9 10 -20 10 -11 0 -20 7 -20 15 0 8 -8 15 -18 15 -10 0 -32 13 -50 29
-17 16 -40 32 -51 36 -10 3 -30 16 -45 30 -14 13 -34 26 -45 30 -10 3 -30 16
-43 28 -34 31 -133 79 -198 95 -63 16 -122 17 -230 4 -41 -5 -167 -10 -280
-11 -114 -1 -238 -8 -280 -15 -45 -8 -169 -14 -308 -15 -136 -1 -244 -6 -260
-13 -15 -5 -157 -14 -317 -18 -159 -5 -317 -13 -350 -19 -33 -5 -161 -10 -285
-10 -133 -1 -239 -5 -260 -12 -19 -6 -163 -15 -320 -19 -157 -5 -316 -13 -355
-18 -81 -11 -524 -16 -548 -6 -15 5 -17 24 -17 138 0 93 -4 139 -14 158 -8 15
-17 40 -21 57 -4 17 -11 31 -16 31 -5 0 -9 6 -9 13 0 7 -8 20 -17 28 -10 9
-27 27 -39 40 -29 34 -86 79 -100 79 -6 0 -17 7 -24 15 -7 8 -22 15 -34 15
-12 0 -31 7 -42 15 -22 17 -199 21 -209 5z m1945 -5451 c25 -6 83 -14 130 -19
46 -4 86 -13 88 -19 2 -6 22 -11 45 -11 23 0 55 -7 71 -15 15 -8 38 -15 50
-15 11 0 34 -7 50 -15 15 -8 36 -15 45 -15 9 0 29 -7 45 -15 15 -8 33 -15 39
-15 5 0 28 -9 51 -19 23 -11 71 -33 107 -50 36 -17 70 -31 76 -31 6 0 13 -3
15 -7 4 -9 52 -38 88 -53 14 -6 34 -27 45 -48 11 -20 25 -41 32 -45 7 -4 13
-19 13 -31 0 -13 7 -26 15 -30 8 -3 15 -16 15 -30 0 -13 7 -26 15 -30 9 -3 15
-18 15 -40 0 -19 7 -41 15 -50 10 -9 15 -34 15 -68 0 -30 6 -60 12 -66 8 -8
14 -53 16 -120 3 -90 1 -110 -12 -121 -11 -10 -16 -30 -16 -72 0 -38 -5 -63
-15 -73 -8 -8 -15 -29 -15 -46 0 -18 -6 -33 -15 -36 -8 -4 -15 -19 -15 -34 0
-16 -5 -32 -11 -35 -5 -4 -14 -17 -20 -28 -14 -33 -33 -61 -46 -70 -7 -4 -13
-12 -13 -18 0 -14 -16 -33 -103 -121 -43 -43 -82 -78 -88 -78 -13 0 -99 -90
-110 -115 -5 -11 -13 -27 -17 -35 -32 -56 -42 -87 -43 -123 -2 -76 -17 -100
-125 -192 -25 -22 -51 -45 -58 -50 -6 -6 -36 -30 -66 -55 -30 -25 -62 -52 -70
-60 -9 -8 -32 -27 -51 -42 -41 -32 -93 -75 -128 -106 -14 -13 -57 -49 -96 -80
-38 -31 -79 -66 -90 -77 -11 -11 -43 -38 -71 -60 -47 -37 -128 -106 -213 -182
-20 -18 -39 -33 -43 -33 -4 0 -22 -15 -41 -32 -33 -33 -96 -86 -152 -130 -16
-12 -41 -34 -55 -48 -14 -14 -57 -50 -95 -80 -39 -30 -87 -71 -107 -92 -21
-21 -40 -38 -43 -38 -7 0 -44 -31 -64 -52 -8 -10 -19 -18 -22 -18 -4 0 -27
-18 -50 -40 -24 -22 -47 -40 -51 -40 -4 0 -8 -7 -8 -15 0 -8 -4 -15 -10 -15
-9 0 -100 -65 -110 -79 -5 -8 -110 -95 -180 -151 -24 -19 -51 -42 -59 -51 -9
-8 -38 -33 -66 -54 -27 -22 -60 -50 -72 -62 -12 -13 -26 -23 -30 -23 -5 0 -20
-13 -33 -30 -14 -16 -29 -29 -33 -30 -4 0 -18 -9 -30 -21 -12 -12 -38 -33 -57
-47 -19 -15 -54 -46 -78 -69 -24 -24 -45 -43 -48 -43 -7 0 -91 -68 -119 -95
-11 -11 -42 -38 -70 -60 -27 -22 -54 -45 -58 -52 -4 -7 -12 -13 -16 -13 -5 0
-30 -20 -56 -45 l-48 -44 -28 22 -28 22 -1 175 c0 137 -4 179 -15 194 -8 11
-15 34 -15 52 0 17 -7 37 -15 44 -8 7 -15 27 -15 45 0 18 -7 38 -15 45 -8 7
-15 29 -15 49 0 21 -7 46 -15 57 -8 10 -15 37 -15 59 0 22 -7 49 -15 59 -8 11
-15 39 -15 63 0 24 -7 60 -15 80 -8 19 -15 59 -15 87 -1 28 -7 69 -15 91 -9
24 -15 78 -15 135 0 52 -7 126 -15 165 -18 84 -21 369 -4 412 6 15 13 87 16
158 3 72 11 149 19 173 8 23 14 71 14 107 0 37 5 65 11 67 6 2 14 34 18 71 4
37 12 72 19 79 7 7 12 30 12 53 0 22 7 49 15 59 8 11 15 36 15 55 0 20 7 45
15 55 8 11 15 32 15 47 0 15 7 34 15 43 8 8 15 31 15 51 0 22 6 38 15 41 11 5
15 23 15 75 0 53 4 71 15 75 8 4 15 18 15 34 0 16 7 30 15 34 8 3 15 17 15 31
0 14 7 28 15 31 8 4 15 15 15 25 0 11 7 22 15 25 8 4 15 15 15 25 0 10 5 19
10 19 6 0 13 8 17 18 3 9 19 33 35 53 15 20 28 42 28 48 0 7 7 14 15 17 8 4
15 11 15 18 0 6 8 19 18 28 9 9 22 23 27 30 6 7 26 33 45 58 45 60 246 258
293 290 20 14 37 28 37 33 0 4 7 7 15 7 8 0 15 4 15 9 0 4 19 21 43 37 23 16
44 32 45 37 2 4 10 7 17 7 8 0 18 6 22 13 4 6 26 21 47 32 22 11 44 25 50 30
6 6 34 21 61 35 28 14 52 28 55 32 3 3 18 10 33 13 15 4 27 11 27 15 0 5 14
11 30 15 17 4 30 10 30 15 0 5 15 12 32 16 31 6 44 11 130 48 20 9 43 16 51
16 8 0 28 7 43 15 16 8 41 15 56 15 15 0 29 4 33 9 3 6 27 13 53 16 26 4 64
13 85 21 20 8 63 14 95 14 32 0 62 4 68 9 14 14 67 18 304 19 118 1 235 -4
260 -9z m-5100 -4140 c25 -6 86 -14 135 -18 50 -4 99 -12 110 -18 11 -6 47
-12 80 -14 33 -1 69 -7 80 -14 11 -6 47 -15 79 -18 32 -3 64 -11 69 -16 6 -6
29 -11 51 -11 23 -1 52 -7 66 -15 14 -8 39 -14 55 -15 17 0 43 -7 59 -15 15
-8 38 -15 50 -15 11 0 34 -7 50 -15 15 -8 37 -15 48 -15 10 0 31 -6 46 -14 15
-8 44 -17 65 -21 20 -4 37 -11 37 -15 0 -4 12 -10 28 -13 41 -8 157 -52 204
-77 10 -6 23 -10 30 -10 6 0 39 -13 72 -29 34 -16 111 -52 171 -80 61 -29 117
-56 125 -61 8 -5 35 -20 60 -32 25 -13 47 -26 48 -30 2 -5 9 -8 16 -8 8 0 24
-8 37 -19 13 -10 32 -20 43 -22 27 -6 54 -87 61 -187 l7 -87 -71 -65 c-39 -35
-78 -68 -86 -73 -9 -4 -12 -14 -9 -20 4 -7 4 -9 -1 -5 -9 8 -61 -28 -107 -72
-14 -15 -45 -42 -68 -61 -23 -19 -48 -40 -55 -46 -8 -7 -16 -13 -19 -13 -3 0
-25 -19 -49 -42 -24 -24 -73 -65 -108 -93 -35 -27 -70 -57 -79 -65 -9 -9 -49
-42 -90 -75 -41 -33 -81 -67 -90 -75 -9 -8 -40 -35 -69 -60 -30 -25 -59 -51
-67 -57 -7 -7 -15 -13 -18 -13 -3 0 -21 -15 -40 -32 -40 -40 -115 -103 -156
-133 -17 -12 -41 -34 -55 -49 -13 -14 -29 -26 -35 -26 -5 0 -10 -5 -10 -10 0
-6 -8 -14 -17 -17 -9 -4 -24 -14 -33 -22 -30 -28 -82 -71 -86 -71 -8 0 -44
-40 -44 -50 0 -5 -5 -10 -11 -10 -7 0 -33 -17 -58 -37 -41 -34 -66 -55 -149
-130 -14 -13 -28 -23 -31 -23 -4 0 -27 -19 -53 -42 -25 -24 -63 -56 -83 -73
-20 -16 -47 -39 -59 -50 -80 -70 -108 -94 -170 -144 -39 -31 -86 -71 -105 -89
-20 -18 -61 -52 -91 -75 -30 -23 -67 -54 -82 -69 -15 -16 -32 -28 -38 -28 -5
0 -10 -7 -10 -15 0 -8 -6 -15 -13 -15 -7 0 -26 -13 -42 -30 -16 -16 -35 -30
-42 -30 -7 0 -13 -4 -13 -9 0 -5 -16 -19 -35 -32 -19 -13 -35 -30 -35 -36 0
-7 -7 -13 -15 -13 -8 0 -15 -4 -15 -9 0 -5 -20 -22 -45 -38 -25 -15 -45 -31
-45 -35 0 -5 -11 -8 -25 -8 -20 0 -25 5 -25 25 0 14 -7 28 -15 31 -11 5 -15
22 -15 64 0 39 -5 62 -15 70 -10 8 -15 31 -15 70 0 32 -7 71 -15 86 -10 19
-15 58 -15 115 0 54 -4 89 -12 97 -10 10 -14 114 -16 433 -2 363 -1 425 13
451 10 21 15 60 15 119 0 64 4 92 15 103 10 10 15 35 15 79 0 45 5 68 15 77
10 8 15 31 15 66 0 33 5 58 15 68 8 8 15 32 15 55 0 22 7 46 15 55 8 8 15 32
15 54 0 23 6 45 15 52 8 7 15 27 15 46 0 18 7 39 15 48 8 8 15 28 15 44 0 16
7 35 15 42 8 7 15 25 15 40 0 15 7 33 15 40 8 7 15 26 15 42 0 16 6 31 15 34
8 4 15 18 15 34 0 15 7 33 15 40 8 7 15 23 15 37 0 13 7 26 15 29 8 4 15 17
15 30 0 14 7 27 15 30 8 4 15 13 15 22 0 19 38 100 51 108 5 3 9 13 9 23 0 10
7 24 15 31 8 7 15 21 15 31 0 10 6 22 13 26 6 4 21 26 32 48 11 22 27 51 36
65 10 14 33 51 53 83 l36 57 97 0 c54 -1 118 -5 143 -11z"/>
<path d="M19740 10040 l0 -690 680 0 680 0 0 690 0 690 -680 0 -680 0 0 -690z"/>
<path d="M21830 7255 l0 -3475 685 0 685 0 0 965 0 965 354 0 354 0 199 -217
c110 -120 321 -349 469 -508 593 -641 770 -832 814 -880 43 -47 109 -119 231
-248 29 -32 56 -63 57 -68 2 -5 279 -9 698 -9 l695 0 -2 232 -1 233 -117 130
c-63 71 -139 155 -167 185 -56 60 -133 144 -264 290 -151 168 -175 194 -195
215 -12 11 -59 63 -105 115 -97 109 -122 137 -215 240 -38 41 -85 93 -105 115
-20 22 -64 69 -96 105 -33 36 -100 110 -149 165 -48 55 -131 147 -184 204
-330 359 -352 386 -345 405 3 9 9 16 13 16 4 0 43 39 86 88 43 48 117 130 165
182 48 52 152 167 231 255 153 170 189 211 284 315 33 36 94 103 135 149 41
45 86 95 100 110 14 14 52 58 85 95 33 38 67 76 76 85 8 9 44 48 79 86 35 39
84 93 109 120 26 28 91 100 146 160 55 61 138 153 186 205 47 52 123 135 168
184 l81 90 0 228 0 228 -692 0 -693 0 -190 -207 c-104 -113 -203 -220 -220
-238 -105 -111 -263 -282 -634 -685 -69 -74 -152 -164 -185 -200 -34 -36 -115
-123 -180 -195 -66 -71 -151 -164 -190 -205 -39 -42 -95 -102 -124 -133 l-53
-57 -355 0 -354 0 0 1820 0 1820 -685 0 -685 0 0 -3475z"/>
<path d="M12260 7035 l0 -3245 685 0 c377 0 688 0 693 0 4 0 9 980 12 2177 l5
2176 150 -177 c83 -98 164 -195 180 -216 34 -43 226 -272 235 -280 3 -3 52
-61 110 -130 57 -69 114 -136 126 -150 12 -14 46 -54 76 -90 107 -129 263
-315 268 -320 3 -3 35 -41 70 -84 36 -43 83 -100 105 -126 109 -127 131 -153
138 -166 5 -8 13 -12 18 -8 5 3 8 1 7 -5 -3 -9 118 -160 267 -334 39 -45 82
-96 95 -113 14 -17 70 -84 125 -150 55 -65 107 -128 117 -139 27 -33 191 -229
209 -250 10 -11 102 -121 205 -245 103 -124 208 -250 235 -280 40 -47 419
-499 810 -965 l108 -130 716 3 715 2 0 3245 0 3245 -700 0 -700 0 -2 -2171 -3
-2171 -242 288 c-133 159 -341 408 -463 554 -194 231 -429 511 -497 590 -12
14 -46 54 -76 90 -30 36 -59 64 -65 63 -5 -1 -9 4 -8 11 0 7 -66 94 -149 192
-82 98 -379 451 -658 784 -280 333 -588 700 -685 815 -97 116 -179 212 -182
215 -3 3 -109 129 -235 280 -126 151 -239 286 -251 300 -12 14 -46 54 -76 90
l-54 65 -717 3 -717 2 0 -3245z"/>
<path d="M19740 6395 l0 -2615 680 0 680 0 0 2615 0 2615 -680 0 -680 0 0
-2615z"/>
<path d="M27640 8325 l0 -685 1965 0 1965 0 0 -275 c0 -255 -1 -275 -17 -275
-10 0 -895 0 -1966 0 l-1948 0 4 -1077 c5 -1176 2 -1134 63 -1317 64 -192 157
-345 306 -501 205 -215 456 -349 731 -389 92 -14 354 -16 2151 -16 l2047 0 -4
2033 c-2 1908 -4 2037 -21 2122 -50 255 -159 463 -340 653 -192 200 -407 325
-663 384 l-98 22 -2087 3 -2088 3 0 -685z m3930 -2800 l0 -365 -1280 0 -1280
0 0 365 0 365 1280 0 1280 0 0 -365z"/>
</g>
</svg>
